<svg width="635" height="440" viewBox="0 0 635 440" fill="none" xmlns="http://www.w3.org/2000/svg">
<path d="M215.439 98.457C214.76 98.457 214.112 98.0536 213.809 97.3742C213.395 96.443 213.789 95.3429 214.688 94.9118L278.771 64.3531C279.67 63.9255 280.735 64.3324 281.149 65.2635C281.563 66.1947 281.17 67.2983 280.27 67.7259L216.187 98.2846C215.944 98.4019 215.689 98.457 215.439 98.457" fill="#0B0754"/>
<path d="M210.421 218.012C210.345 218.012 210.269 218.009 210.192 217.999C209.21 217.868 208.515 216.94 208.641 215.923L225.85 76.3133C225.975 75.2959 226.873 74.5751 227.855 74.7062C228.837 74.8372 229.531 75.7684 229.406 76.7823L212.196 216.392C212.081 217.33 211.31 218.012 210.421 218.012Z" fill="#0B0754"/>
<path d="M303.441 76.1751C297.682 62.0079 285.458 53.8173 276.138 57.8798C266.817 61.9424 263.93 76.7199 269.689 90.8871C271.11 94.3841 272.926 97.5155 274.994 100.192L306.157 86.6039C305.756 83.2035 304.862 79.672 303.441 76.1751Z" fill="#1512A9"/>
<path d="M232.679 91.3286C232.679 95.3601 229.522 98.6294 225.628 98.6294C221.735 98.6294 218.578 95.3601 218.578 91.3286C218.578 87.2936 221.735 84.0277 225.628 84.0277C229.522 84.0277 232.679 87.2936 232.679 91.3286Z" fill="#0B0754"/>
<path d="M450.654 219.919C438.872 218.34 425.965 214.708 425.965 214.708C425.965 214.708 423.86 190.13 423.773 189.216C423.017 176.594 421.502 168.179 429.388 159.185C433.134 154.915 450.541 157.536 453.451 172.735C456.145 186.819 453.301 206.797 451.456 219.295L451.35 220.012L450.654 219.919" fill="#B75742"/>
<path d="M123.469 375.862C123.469 375.862 62.4056 330.477 53.8056 310.803C45.2064 291.124 62.1795 293.011 62.1795 293.011C62.1795 293.011 37.2901 258.021 43.4817 246.154C49.673 234.287 60.2813 240.063 60.2813 240.063C60.2813 240.063 51.1625 201.2 60.8687 198.324C78.9474 192.965 94.8755 244.336 94.8755 244.336C94.8755 244.336 96.786 223.868 104.551 225.558C121.843 229.324 113.623 275.947 113.623 275.947C113.623 275.947 118.446 258.448 128.008 266.046C145.164 279.671 123.469 375.862 123.469 375.862" fill="#00FF00"/>
<path d="M129.851 263.487C120.785 256.972 114.612 266.953 114.612 266.953C114.612 266.953 121.757 229.717 104.55 225.558C95.511 223.372 94.875 244.336 94.875 244.336C94.875 244.336 78.9469 192.965 60.8682 198.324L123.666 375.12C126.1 363.947 144.317 273.881 129.851 263.487Z" fill="#00B300"/>
<path d="M106.71 361.763C106.71 361.763 43.9042 361.788 35.168 360.736C26.4322 359.687 36.0838 351.61 36.0838 351.61C36.0838 351.61 16.5412 352.348 13.5621 347.424C10.5837 342.503 18.5653 340.561 18.5653 340.561C18.5653 340.561 -0.896918 334.719 0.0322417 330.436C1.76272 322.452 23.258 327.656 23.258 327.656C23.258 327.656 15.2745 323.642 18.519 319.91C23.4122 314.285 44.3105 329.584 44.3105 329.584C44.3105 329.584 37.8914 316.237 41.0943 312.268C53.5931 296.773 106.71 361.763 106.71 361.763Z" fill="#00B300"/>
<path d="M122.28 377.324C122.28 377.324 182.428 365.233 195.723 353.673C209.019 342.109 192.711 341.209 192.711 341.209C192.711 341.209 228.366 327.225 227.917 315.941C227.467 304.657 212.161 303.991 212.161 303.991C212.161 303.991 233.439 284.251 229.071 274.681C222.358 259.976 191.926 287.865 191.926 287.865C191.926 287.865 192.663 263.576 183.224 261.241C168.99 257.717 156.696 303.319 156.696 303.319C156.696 303.319 154.524 292.31 144.746 294.407C127.202 298.17 122.28 377.324 122.28 377.324" fill="#00FF00"/>
<path d="M89.1561 434.979H173.564C184.315 422.384 185.392 403.786 185.153 384.759C185.033 375.151 188.963 368.03 185.746 359.808L76.9184 361.374C73.9103 369.73 72.2969 378.91 72.4174 388.518C72.6452 406.641 78.992 422.981 89.1561 434.979" fill="#FF0000"/>
<path d="M607.204 432.969H19.9548C18.095 432.969 16.5879 434.531 16.5879 436.455C16.5879 438.379 18.095 439.942 19.9548 439.942H607.298C609.21 439.942 610.75 438.29 610.66 436.286C610.575 434.41 609.016 432.969 607.204 432.969" fill="white"/>
<path d="M380.676 19.7618C393.204 15.7406 404.24 29.694 398.016 41.7126C396.897 43.8715 396.617 46.3924 397.137 48.7858L398.918 57.0109C399.408 59.2767 398.136 61.5563 395.991 62.2426L391.246 63.7669C389.104 64.4532 386.81 63.322 385.977 61.1631C382.937 53.2933 382.368 50.1618 378.368 48.0202C366.67 41.754 368.148 23.7829 380.676 19.7618" fill="#175EF3"/>
<path d="M377.196 33.56C376.58 34.1118 376.786 35.2706 377.386 35.8603C378.235 36.6983 379.673 36.8294 380.892 36.8949C380.363 35.5878 379.97 34.4153 379.194 33.7462C378.648 33.2738 377.262 33.4979 377.196 33.56V33.56ZM389.57 31.7839C389.177 32.8634 389.287 34.0428 389.57 35.274C391.046 34.5946 391.891 33.7945 392.165 32.8323C392.621 31.2149 390.453 29.3457 389.57 31.7839V31.7839ZM394.276 52.607C392.048 46.1615 389.837 38.9813 389.094 36.2672C386.82 37.1777 384.395 37.6501 381.961 37.657C384.059 42.899 386.044 48.2479 387.869 53.583L387.206 53.8279C385.348 48.4031 383.327 42.968 381.192 37.6398C379.707 37.5846 377.958 37.4363 376.896 36.3879C376.4 35.8982 376.1 35.1499 376.117 34.436C376.16 32.5358 378.251 31.9771 379.647 33.1841C380.569 33.9842 381.002 35.2705 381.668 36.9225C384.139 36.9569 386.607 36.4914 388.911 35.5568C388.578 34.1704 388.442 32.8151 388.911 31.5253C390.549 26.9937 396.567 32.9324 389.75 35.9879C390.326 38.1123 392.567 45.4959 394.939 52.3588L394.276 52.607" fill="white"/>
<path d="M397.099 48.5755C397.112 48.6444 397.119 48.7168 397.136 48.7858L398.917 57.0109C399.407 59.2767 398.135 61.5563 395.99 62.2426L391.245 63.7669C389.103 64.4532 386.809 63.322 385.977 61.1631C384.625 57.6627 383.762 55.1004 382.866 53.145L397.099 48.5755" fill="#7C9AF2"/>
<path d="M386.621 9.8534L386.921 1.51467C386.951 0.709044 386.345 0.0289931 385.564 0.00109275C384.786 -0.0302951 384.129 0.597456 384.099 1.40657L383.799 9.74179C383.769 10.5474 384.375 11.2275 385.156 11.2589C385.941 11.2868 386.591 10.6555 386.621 9.8534Z" fill="#BED1F9"/>
<path d="M401.829 21.7619L409.042 17.1717C409.708 16.751 409.914 15.8509 409.508 15.1612C409.098 14.4749 408.229 14.2576 407.566 14.6818L400.35 19.272C399.684 19.6962 399.478 20.5963 399.887 21.2826C400.293 21.9688 401.163 22.1861 401.829 21.7619Z" fill="#BED1F9"/>
<path d="M420.877 41.8471C421.117 41.0781 420.714 40.2539 419.971 40.0021C417.201 39.0641 414.33 38.3985 411.436 38.0191C410.664 37.9191 409.958 38.4847 409.861 39.2883C409.761 40.0883 410.311 40.8195 411.083 40.9195C413.797 41.2747 416.495 41.9023 419.096 42.7818C419.832 43.0301 420.634 42.6162 420.877 41.8471" fill="#BED1F9"/>
<path d="M367.806 19.1512C368.392 18.6167 368.445 17.6925 367.929 17.0889C365.475 14.2196 363.3 11.0744 361.469 7.74303C361.086 7.0395 360.223 6.79463 359.544 7.19467C358.868 7.59472 358.631 8.48792 359.018 9.188C360.942 12.6953 363.23 16.0061 365.814 19.0271C366.334 19.6341 367.23 19.6858 367.806 19.1512" fill="#BED1F9"/>
<path d="M364.885 33.222C364.755 32.4253 364.023 31.8908 363.257 32.0288L354.229 33.6427C353.46 33.7807 352.947 34.5359 353.077 35.3326C353.21 36.1258 353.943 36.6603 354.708 36.5224L363.736 34.9084C364.502 34.7739 365.018 34.0186 364.885 33.222Z" fill="#BED1F9"/>
<path d="M362.437 61.5081C362.55 61.4494 362.657 61.3736 362.757 61.2839C365.091 59.0837 367.206 56.6178 369.037 53.9555C369.487 53.2968 369.34 52.3829 368.704 51.9173C368.068 51.4483 367.189 51.6 366.736 52.2587C365.021 54.7521 363.043 57.0593 360.855 59.1181C360.279 59.663 360.236 60.5873 360.762 61.1839C361.195 61.6805 361.884 61.7943 362.437 61.5081" fill="#BED1F9"/>
<path d="M280.086 284.868H410.03V240.529H280.086V284.868Z" fill="white"/>
<path d="M226.239 410.987H323.427V237.994H226.239V410.987Z" fill="#FAE0B2"/>
<path d="M266.597 433.175H276.458V410.559H266.597V433.175Z" fill="#0B0754"/>
<path d="M211.927 433.161H221.788V410.907H211.927V433.161" fill="#0B0754"/>
<path d="M545.268 433.013H555.667C541.395 423.412 533.214 398.495 528.954 381.803C520.705 349.668 518.838 318.344 518.806 318.089L504.676 320.223C509.13 350.631 521.191 409.896 545.268 433.013" fill="#0B0754"/>
<path d="M172.907 410.987H330.951V237.994H172.907V410.987Z" fill="white"/>
<path d="M173.121 433.255H184.753V234.156H173.121V433.255Z" fill="#0B0754"/>
<path d="M170.847 229.365H271.398C275.238 229.365 278.352 226.02 278.352 221.896V217.454C278.352 213.329 275.238 209.984 271.398 209.984H170.847C175.446 215.385 175.526 223.637 171.031 229.138L170.847 229.365Z" fill="#4951EC"/>
<path d="M172.399 212.205H228.17C232.011 212.205 235.124 215.547 235.124 219.675C235.124 223.799 232.011 227.145 228.17 227.145H172.395C175.001 222.561 174.995 216.774 172.399 212.205" fill="#DDE8FE"/>
<path d="M200.046 196.417H283.803C286.404 196.417 288.512 198.6 288.512 201.293V205.397C288.512 208.091 286.404 210.274 283.803 210.274H200.046L200.09 210.225C203.673 206.363 203.653 200.255 200.046 196.417Z" fill="#FA7167"/>
<path d="M201.528 198.469H246.303C248.904 198.469 251.013 200.652 251.013 203.345C251.013 206.039 248.904 208.222 246.303 208.222H201.529C203.175 205.201 203.172 201.486 201.528 198.469" fill="#DDE8FE"/>
<path d="M438.496 163.848C432.192 155.557 418.825 160.796 423.784 188.268C423.814 188.423 425.162 209.843 424.56 218.123C418.202 216.595 406.62 212.615 398.169 212.164C398.169 212.164 387.829 201.731 383.763 199.835C380.746 198.428 372.57 199.138 372.57 199.138C372.57 199.138 360.652 205.656 361.574 207.763C362.836 210.639 369.706 202.469 373.459 203.797C373.459 203.797 364.768 208.843 366.839 209.756C368.911 210.67 372.38 209.47 374.069 209.35C375.757 209.225 381.858 214.433 386.61 217.019C387.392 217.447 389.227 219.113 392.811 221.151C396.447 223.217 400.27 226.703 405.232 228.821C418.579 234.518 433.411 242.071 438.543 238.018L438.516 237.96C444.38 230.776 449.006 177.67 438.496 163.848Z" fill="#EF7F7F"/>
<path d="M560.46 180.773C553.343 179.192 546.201 183.321 544.39 190.067L517.805 289.086C516.859 292.604 513.529 295.066 509.717 295.066H428.498C421.732 295.066 416.244 300.746 416.244 307.754C416.244 314.586 421.462 320.19 428.052 320.438L525.703 324.107C532.202 324.107 539.461 315.024 541.027 309.013L570.453 196.329C572.264 189.394 567.766 182.391 560.46 180.773" fill="#0B0754"/>
<path d="M429.709 433.013H434.967C439.713 399.192 440.675 359.556 435.37 308.378L422.643 308.647C431.091 359.443 432.48 399.109 429.709 433.013" fill="#0B0754"/>
<path d="M398.924 433.665H412.664V232.321H398.924V433.665Z" fill="#0B0754"/>
<path d="M372.191 391.512C368.618 398.392 359.883 421.077 359.553 422.795C359.456 423.291 358.221 424.943 357.808 425.257C346.532 426.426 338.28 420.156 332.017 413.976C337.931 414.404 346.972 412.821 348.287 412.59C351.717 411.983 351.351 401.178 353.309 389.039C356.35 390.484 367.762 387.359 372.191 391.512Z" fill="#FB9390"/>
<path d="M359.59 422.646C358.658 426.443 354.778 433.444 354.029 433.241C353.133 433.003 319.846 420.626 316.982 415.687C315.214 412.638 324.315 412.494 331.641 412.88C337.905 419.063 357.666 423.629 359.59 422.646Z" fill="#4951EC"/>
<path d="M479.739 294.49L410.986 302.329L374.072 400.351L351.638 395.802C351.638 395.802 364.229 291.062 371.562 282.296C391.565 258.39 461.457 261.217 461.457 261.217L479.739 294.49" fill="#7C9AF2"/>
<path d="M419.991 396.957C419.701 401.623 418.672 407.272 418.872 412.718C419.009 416.37 420.317 420.815 420.477 421.498C420.59 421.991 420.128 424.029 419.881 424.491C410.104 430.423 400.08 428.288 391.898 425.371C397.446 423.208 401.306 418.904 402.701 417.335C405.059 414.687 403.381 406.734 400.274 394.853C403.617 394.853 414.293 395.095 419.991 396.957" fill="#FB9390"/>
<path d="M471.474 251.478C471.474 251.478 399.498 255.513 381.352 283.023C367.772 303.605 401.586 405.127 401.586 405.127L421.933 401.244C421.933 401.244 417.247 332.45 413.854 309.754C413.281 305.909 410.637 294.545 410.637 294.545C410.637 294.545 487.745 302.398 500.256 295.659C512.764 288.924 518.009 270.653 512.504 258.734C507 246.816 471.474 251.478 471.474 251.478" fill="#92B5F9"/>
<path d="M420.44 421.343C421.709 423.75 422.365 433.079 421.603 433.217C420.69 433.386 382.437 435.607 377.845 432.351C375.015 430.344 385.082 428.182 391.898 425.371C400.08 428.289 420.027 423.923 420.44 421.343Z" fill="#4951EC"/>
<path d="M431.413 145.446C425.002 146.604 424.609 151.967 424.609 151.967L418.042 180.308C418.042 180.308 417.44 192.31 418.772 196.903C421.359 205.842 426.591 209.363 435.162 212.402C446.524 216.426 451.013 226.572 455.915 232.49C464.414 242.76 457.497 255.048 457.497 255.048L480.102 262.438L513.919 257.734C513.919 257.734 517.722 251.675 504.261 217.93C492.573 188.626 464.56 139.438 431.413 145.446" fill="#FF0000"/>
<path d="M449.137 433.014H454.301C460.985 381.987 458.965 325.136 452.36 274.306C451.626 268.65 455.721 263.556 461.226 263.288L538.971 259.473V253.911C538.936 253.911 473.239 249.748 443.722 247.996C438.128 247.662 433.791 252.972 435.022 258.632C435.887 262.612 436.921 267.605 438.052 273.589C447.759 324.587 453.098 381.108 449.137 433.014" fill="white"/>
<path d="M456.515 151.594C449.225 143.304 436.321 148.625 442.056 176.101C442.089 176.252 442.039 202.718 441.34 210.998C433.99 209.467 418.156 202.086 408.119 199.614C408.119 199.614 397.932 189.478 393.23 187.581C389.747 186.174 380.293 186.888 380.293 186.888C380.293 186.888 366.513 193.406 367.582 195.51C369.037 198.386 376.982 190.216 381.322 191.547C381.322 191.547 371.275 196.589 373.666 197.503C376.06 198.417 380.073 197.22 382.024 197.096C383.976 196.976 389.334 202.952 394.828 205.539C395.734 205.963 399.55 206.863 403.693 208.901C407.899 210.967 449.685 241.198 453.528 235.007C463.708 218.599 468.67 165.42 456.515 151.594" fill="#FB9390"/>
<path d="M462.843 207.297C451.065 205.718 438.154 202.086 438.154 202.086C438.154 202.086 436.049 177.508 435.963 176.594C435.207 163.972 433.692 155.557 441.581 146.563C445.324 142.293 462.73 144.914 465.637 160.109C468.334 174.197 465.491 194.175 463.642 206.673L463.539 207.39L462.843 207.297" fill="#B30000"/>
<path d="M426.078 98.7065C426.983 90.5649 426.976 59.6267 445.13 60.2647C463.29 60.9026 463.395 81.5985 478.101 56.6626C491.724 33.5594 516.885 48.4892 514.547 67.6062C517.144 67.8846 519.689 68.7869 521.987 70.3659C529.927 75.8289 531.843 87.3047 526.268 95.9926C525.383 97.3743 525.455 98.9321 524.332 99.9965C524.89 108.635 521.738 117.764 513.849 126.113C492.306 148.92 480.538 118.141 468.936 117.376C457.337 116.611 463.041 127.237 451.913 132.468C440.787 137.698 433.228 134.269 420.833 111.592L417.876 105.435C417.876 105.435 425.173 106.848 426.078 98.7065" fill="#040342"/>
<path d="M415.608 93.1014C428.382 102.334 431.206 125.843 419.447 137.072C411.805 144.369 396.749 145.639 388.388 138.4C374.831 126.664 373.319 113.376 378.128 102.947C384.332 89.4906 405.068 85.4867 415.608 93.1014" fill="#040342"/>
<path d="M419.598 124.957C419.598 124.957 423.534 137.61 437.397 144.914C439.102 145.811 418.056 180.867 418.046 180.449C417.986 177.742 421.686 161.951 420.787 160.013C418.323 154.698 404.033 130.485 404.033 130.485L419.598 124.957" fill="#FB9390"/>
<path d="M411.649 127.778L404.033 130.485C404.047 130.509 410.314 141.124 415.259 149.836C417.011 148.346 418.562 146.187 419.801 143.228C421.789 138.493 422.086 133.565 421.326 128.882C420.088 126.526 419.598 124.957 419.598 124.957L411.649 127.778" fill="#EF7F7F"/>
<path d="M391.242 101.206C391.242 101.206 398.059 98.2194 405.475 101.096C412.894 103.972 426.218 122.646 419.351 139.024C412.485 155.405 396.067 147.263 388.778 136.876C381.491 126.488 374.239 110.824 391.242 101.206Z" fill="#FB9390"/>
<path d="M420.787 110.482C414.912 99.9157 408.465 93.715 399.404 96.1222C390.343 98.5259 382.218 100.133 381.605 111.145L380.952 113.028C380.952 113.028 394.073 106.389 399.514 111.583C404.955 116.776 416.354 118.473 417.869 122.073C419.381 125.677 423.131 132.195 423.131 132.195L423.807 128.147C423.807 128.147 426.664 121.049 420.787 110.482" fill="#040342"/>
<path d="M406.95 116.956C408.176 120.232 410.95 122.126 413.141 121.184C415.332 120.239 416.118 116.818 414.892 113.538C413.664 110.259 410.893 108.369 408.702 109.31C406.507 110.255 405.725 113.676 406.95 116.956Z" fill="#FB9390"/>
<path d="M328.751 433.255H341.808V234.156H328.751V433.255Z" fill="#0B0754"/>
<path d="M255.877 129.319C255.877 129.319 265.236 132.599 269.022 142.811C274.16 156.671 266.213 178.884 268.484 185.071C270.754 191.261 281.449 198.003 281.449 198.003L305.707 189.092C305.707 189.092 297.223 172.511 297.462 166.817C297.701 161.126 296.865 134.272 286.707 129.319H255.877" fill="#BED1F9"/>
<path d="M287.905 135.013H268.307C268.043 135.013 267.829 134.792 267.829 134.517C267.829 134.244 268.043 134.023 268.307 134.023H287.905C288.169 134.023 288.383 134.244 288.383 134.517C288.383 134.792 288.169 135.013 287.905 135.013Z" fill="#4951EC"/>
<path d="M291.371 138.848H271.296C271.032 138.848 270.817 138.627 270.817 138.355C270.817 138.082 271.032 137.858 271.296 137.858H291.371C291.635 137.858 291.849 138.082 291.849 138.355C291.849 138.627 291.635 138.848 291.371 138.848Z" fill="#4951EC"/>
<path d="M292.326 143.18H278.583C278.319 143.18 278.105 142.959 278.105 142.686C278.105 142.414 278.319 142.19 278.583 142.19H292.326C292.59 142.19 292.803 142.414 292.803 142.686C292.803 142.959 292.59 143.18 292.326 143.18Z" fill="#4951EC"/>
<path d="M291.488 229.148H269.818V223.62H291.488V229.148Z" fill="#0B0754"/>
<path d="M367.012 229.107H343.908V222.465H367.012V229.107Z" fill="#0B0754"/>
<path d="M269.899 185.009H262.41V171.893H269.023L269.899 185.009Z" fill="#0B0754"/>
<path d="M274.918 163.806C274.918 169.365 270.566 173.873 265.199 173.873C259.831 173.873 255.479 169.365 255.479 163.806C255.479 158.247 259.831 153.739 265.199 153.739C270.566 153.739 274.918 158.247 274.918 163.806Z" fill="#4951EC"/>
<path d="M270.297 163.806C270.297 166.724 268.015 169.086 265.198 169.086C262.383 169.086 260.1 166.724 260.1 163.806C260.1 160.888 262.383 158.526 265.198 158.526C268.015 158.526 270.297 160.888 270.297 163.806Z" fill="#0B0754"/>
<path d="M282.924 151.308C282.924 153.495 281.212 155.267 279.1 155.267C276.988 155.267 275.276 153.495 275.276 151.308C275.276 149.122 276.988 147.346 279.1 147.346C281.212 147.346 282.924 149.122 282.924 151.308Z" fill="#0B0754"/>
<path d="M268.978 184.581L267.158 181.974C267.262 181.895 277.539 174.145 279.622 167.786C281.67 161.537 278.969 154.633 278.942 154.564L281.81 153.329C281.941 153.653 284.995 161.399 282.564 168.821C280.162 176.152 269.433 184.24 268.978 184.581" fill="#0B0754"/>
<path d="M307.781 151.308C307.781 153.495 306.068 155.267 303.957 155.267C301.845 155.267 300.133 153.495 300.133 151.308C300.133 149.122 301.845 147.346 303.957 147.346C306.068 147.346 307.781 149.122 307.781 151.308Z" fill="#0B0754"/>
<path d="M293.832 184.581L292.013 181.974C292.116 181.895 302.393 174.145 304.477 167.786C306.525 161.537 303.823 154.633 303.796 154.564L306.665 153.329C306.796 153.653 309.85 161.399 307.419 168.821C305.017 176.152 294.288 184.24 293.832 184.581" fill="#0B0754"/>
<path d="M302.403 151.801H279.818V149.821H302.403V151.801" fill="#0B0754"/>
<path d="M317.756 164.775C317.756 169.696 314.406 173.687 310.27 173.687C306.133 173.687 302.78 169.696 302.78 164.775C302.78 159.854 306.133 155.864 310.27 155.864C314.406 155.864 317.756 159.854 317.756 164.775Z" fill="#4951EC"/>
<path d="M291.987 173.994H310.469V155.905H291.987V173.994Z" fill="#4951EC"/>
<path d="M301.387 164.858C301.387 169.779 297.321 173.77 292.305 173.77C287.29 173.77 283.224 169.779 283.224 164.858C283.224 159.937 287.29 155.947 292.305 155.947C297.321 155.947 301.387 159.937 301.387 164.858Z" fill="#0B0754"/>
<path d="M353.865 196.641C353.865 197.669 352.021 198.5 349.743 198.5C347.468 198.5 345.62 197.669 345.62 196.641C345.62 195.617 347.468 194.786 349.743 194.786C352.021 194.786 353.865 195.617 353.865 196.641Z" fill="#0B0754"/>
<path d="M362.231 201.314C362.231 202.286 360.733 203.076 358.888 203.076C357.04 203.076 355.541 202.286 355.541 201.314C355.541 200.341 357.04 199.552 358.888 199.552C360.733 199.552 362.231 200.341 362.231 201.314Z" fill="#0B0754"/>
<path d="M372.747 201.314C372.747 202.286 371.248 203.076 369.4 203.076C367.552 203.076 366.057 202.286 366.057 201.314C366.057 200.341 367.552 199.552 369.4 199.552C371.248 199.552 372.747 200.341 372.747 201.314Z" fill="#0B0754"/>
<path d="M367.61 197.355C367.61 198.327 366.112 199.117 364.264 199.117C362.416 199.117 360.917 198.327 360.917 197.355C360.917 196.379 362.416 195.589 364.264 195.589C366.112 195.589 367.61 196.379 367.61 197.355Z" fill="#0B0754"/>
<path d="M359.783 214.957H358.108V202.024H359.783V214.957Z" fill="#0B0754"/>
<path d="M357.451 204.78C357.451 205.752 355.953 206.542 354.105 206.542C352.256 206.542 350.758 205.752 350.758 204.78C350.758 203.804 352.256 203.014 354.105 203.014C355.953 203.014 357.451 203.804 357.451 204.78Z" fill="#0B0754"/>
<path d="M355.001 218.423H353.329V205.49H355.001V218.423Z" fill="#0B0754"/>
<path d="M350.581 210.749H348.906V197.817H350.581V210.749Z" fill="#0B0754"/>
<path d="M370.295 214.895H368.623V201.962H370.295V214.895Z" fill="#0B0754"/>
<path d="M365.102 212.36H363.427V198.686H365.102V212.36Z" fill="#0B0754"/>
<path d="M375.138 210.167V225.106H256.356V184.76H274.441L281.451 171.645L325.27 171.428L329.583 171.407C327.768 197.548 351.605 216.847 375.138 210.167" fill="#0B0754"/>
<path d="M375.138 210.167V214.771C348.657 221.427 323.542 199.597 325.27 171.428L329.582 171.407C327.767 197.548 351.604 216.847 375.138 210.167Z" fill="#4951EC"/>
<path d="M346.22 218.423H262.331V188.474C262.331 188.064 262.01 187.733 261.614 187.733C261.218 187.733 260.897 188.064 260.897 188.474V219.164C260.897 219.575 261.218 219.909 261.614 219.909H346.22C346.616 219.909 346.936 219.575 346.936 219.164C346.936 218.754 346.616 218.423 346.22 218.423Z" fill="#4951EC"/>
<path d="M143.273 241.346H428.832C431.363 241.346 433.414 239.222 433.414 236.601V233.838C433.414 231.217 431.363 229.093 428.832 229.093H143.273C140.742 229.093 138.69 231.217 138.69 233.838V236.601C138.69 239.222 140.742 241.346 143.273 241.346Z" fill="#0B0754"/>
<path d="M183.225 209.273L177.705 209.811L172.672 161.702L174.398 152.38L178.191 161.164L183.225 209.273" fill="#FA7167"/>
<path d="M178.201 161.254L178.191 161.165L175.557 155.067L173.873 155.216L172.701 161.544C174.422 161.551 176.415 161.689 178.201 161.254" fill="#DDE8FE"/>
<path d="M184.224 211.522L178.707 210.963L183.8 167.938C183.97 166.379 185.148 162.996 186.655 163.147C188.195 163.306 188.352 166.893 188.179 168.482L184.224 211.522" fill="#0B0754"/>
<path d="M186.399 167.096L186.359 167.093C186.186 167.072 186.063 166.907 186.085 166.727L186.823 160.609C186.845 160.43 187.002 160.302 187.176 160.323C187.35 160.347 187.473 160.509 187.452 160.689L186.713 166.81C186.693 166.975 186.556 167.096 186.399 167.096Z" fill="#0B0754"/>
<path d="M186.959 229.135H170.566C168.289 229.135 166.443 227.221 166.443 224.865V188.644H191.081V224.865C191.081 227.221 189.236 229.135 186.959 229.135" fill="#7C9AF2"/>
<path d="M181.163 224.434V188.644H166.443V224.434C166.443 227.031 168.475 229.135 170.982 229.135H176.624C179.131 229.135 181.163 227.031 181.163 224.434Z" fill="#92B5F9"/>
<path d="M364.375 174.39L363.992 171.017C363.882 170.076 363.805 168.907 363.735 167.972L363.692 167.965C363.329 168.824 362.923 169.931 362.54 170.762L361.148 173.821L364.375 174.39ZM360.249 176.297L359.103 178.821C358.79 179.515 358.067 179.908 357.338 179.777C356.249 179.587 355.646 178.356 356.143 177.335L362.097 165.051L366.433 165.813L368.181 179.449C368.327 180.587 367.368 181.546 366.276 181.353L366.126 181.329C365.414 181.201 364.861 180.604 364.771 179.856L364.435 177.032L360.249 176.297" fill="#4B69A4"/>
<path d="M343.792 162.951C344.201 162.813 344.664 162.582 345.33 162.251C347.102 161.371 348.351 159.902 347.475 158.016C346.639 156.205 344.741 156.264 342.789 157.233L341.451 157.895L343.792 162.951ZM340.109 154.998L341.394 154.36C343.449 153.339 344.148 151.915 343.532 150.584C342.903 149.228 341.571 149.008 339.799 149.887C338.95 150.308 338.487 150.601 338.177 150.822L340.109 154.998ZM333.056 150.06C333.985 149.335 335.989 148.145 337.944 147.176C340.332 145.99 341.907 145.504 343.522 145.649C345.037 145.714 346.476 146.504 347.228 148.128C347.968 149.725 347.758 151.66 346.15 153.374L346.173 153.425C348.411 153.005 350.589 153.819 351.661 156.136C352.41 157.757 352.284 159.392 351.621 160.83C350.845 162.492 349.007 164.123 345.567 165.83C343.639 166.786 342.14 167.368 341.204 167.668L333.056 150.06" fill="#185CED"/>
<path d="M366.277 137.151C366.607 138.189 366.074 139.31 365.075 139.665C364.149 139.993 362.963 140.293 361.588 140.479C354.392 141.438 350.109 137.296 349.347 131.154C348.431 123.798 352.987 119.028 359.287 118.19C360.546 118.021 361.665 118.011 362.577 118.087C363.659 118.177 364.445 119.201 364.309 120.318L364.302 120.391C364.176 121.453 363.263 122.218 362.231 122.132C361.565 122.074 360.819 122.08 360.003 122.191C356.267 122.687 353.653 125.412 354.249 130.209C354.785 134.523 357.595 136.913 361.795 136.354C362.501 136.261 363.23 136.082 363.896 135.865C364.892 135.544 365.947 136.127 366.277 137.151" fill="#4541FE"/>
<path d="M330.784 111.938C331.314 111.886 332.11 111.614 332.829 111.369C338.064 109.62 340.518 105.479 338.507 99.1675C336.795 93.6668 332.766 91.8287 327.807 93.5254C326.522 93.9668 325.726 94.3704 325.273 94.6566L330.784 111.938ZM318.12 92.3667C320.125 91.2872 322.826 90.1457 325.739 89.1491C330.585 87.4902 334.011 87.3178 337.085 88.3938C340.382 89.5284 343.086 92.208 344.574 96.8741C346.186 101.93 345.523 106.027 343.748 109.024C341.8 112.255 338.064 114.752 333.069 116.459C330.078 117.483 327.897 118.011 326.395 118.308L318.12 92.3667Z" fill="#1E19FB"/>
<path d="M609.005 334.033C609.172 335.523 608.144 336.872 606.705 337.048C605.271 337.22 603.964 336.154 603.797 334.665C603.63 333.175 604.658 331.83 606.093 331.654C607.531 331.478 608.834 332.547 609.005 334.033" fill="#FA7167"/>
<path d="M605.105 335.839C606.088 337.384 608.416 336.505 608.211 334.673C608.102 333.721 607.273 333.021 606.332 333.135C605.074 333.287 604.427 334.763 605.105 335.839" fill="#FA7167"/>
<path d="M622.141 338.13C621.208 339.275 621.348 340.989 622.452 341.958C623.557 342.924 625.216 342.779 626.145 341.634C627.082 340.489 626.942 338.775 625.838 337.809C624.729 336.841 623.074 336.985 622.141 338.13" fill="#FA7167"/>
<path d="M622.671 341.596C623.383 342.22 624.457 342.127 625.058 341.385C625.539 340.799 625.591 339.937 625.181 339.292C625.094 339.151 624.986 339.023 624.859 338.912C624.513 338.609 624.071 338.464 623.621 338.506C622.118 338.637 621.529 340.596 622.671 341.596" fill="#FA7167"/>
<path d="M610.325 333.957C610.317 335.457 611.489 336.674 612.938 336.681C614.383 336.685 615.558 335.474 615.566 333.974C615.57 332.474 614.403 331.257 612.954 331.25C611.508 331.246 610.329 332.457 610.325 333.957Z" fill="#FA7167"/>
<path d="M612.875 336.259C614.229 336.263 615.032 334.7 614.304 333.545C613.372 332.076 611.192 332.787 611.188 334.497C611.185 335.463 611.936 336.256 612.875 336.259" fill="#FA7167"/>
<path d="M598.679 338.625C599.609 339.777 601.258 339.932 602.373 338.974C603.484 338.015 603.633 336.301 602.703 335.149C601.777 333.997 600.128 333.842 599.013 334.804C597.902 335.763 597.752 337.474 598.679 338.625Z" fill="#FA7167"/>
<path d="M599.676 338.472C600.271 339.213 601.343 339.313 602.064 338.696C602.775 338.078 602.886 336.975 602.279 336.223C601.68 335.478 600.609 335.378 599.891 335.999C599.177 336.616 599.07 337.716 599.676 338.472Z" fill="#FA7167"/>
<path d="M618.501 369.957C617.854 368.616 618.378 366.984 619.671 366.312C620.965 365.64 622.54 366.181 623.187 367.519C623.837 368.86 623.318 370.491 622.024 371.164C620.731 371.837 619.155 371.295 618.501 369.957" fill="#FA7167"/>
<path d="M619.14 369.251C619.607 369.996 620.545 370.255 621.314 369.855C622.213 369.386 622.529 368.206 621.971 367.32C621.5 366.575 620.565 366.316 619.793 366.716C618.89 367.189 618.582 368.368 619.14 369.251" fill="#FA7167"/>
<path d="M627.288 360.763C625.956 360.166 625.346 358.569 625.92 357.194C626.494 355.817 628.035 355.183 629.363 355.776C630.692 356.369 631.306 357.969 630.732 359.345C630.162 360.722 628.617 361.356 627.288 360.763Z" fill="#FA7167"/>
<path d="M626.401 359.081C627.133 360.239 628.839 360.098 629.376 358.812C629.748 357.922 629.352 356.887 628.491 356.505C626.953 355.815 625.484 357.625 626.401 359.081" fill="#FA7167"/>
<path d="M628.308 347.873C626.922 348.301 625.458 347.487 625.042 346.049C624.629 344.614 625.414 343.1 626.805 342.672C628.188 342.241 629.651 343.055 630.068 344.493C630.481 345.928 629.695 347.442 628.308 347.873Z" fill="#FA7167"/>
<path d="M628.567 346.32C628.783 345.91 628.831 345.434 628.703 344.986C628.267 343.489 626.296 343.285 625.584 344.654C625.372 345.068 625.32 345.541 625.452 345.993C625.884 347.482 627.851 347.693 628.567 346.32Z" fill="#FA7167"/>
<path d="M626.695 361.984C625.441 361.228 623.839 361.667 623.107 362.963C622.38 364.26 622.804 365.922 624.058 366.677C625.305 367.429 626.911 366.991 627.638 365.694C628.37 364.398 627.942 362.735 626.695 361.984Z" fill="#FA7167"/>
<path d="M625.384 365.699C626.836 365.302 627.111 363.271 625.807 362.485C624.997 361.999 623.956 362.285 623.486 363.119C622.724 364.475 623.936 366.096 625.384 365.699Z" fill="#FA7167"/>
<path d="M621.094 337.315C620.299 338.567 618.673 338.916 617.463 338.091C616.256 337.267 615.92 335.584 616.715 334.332C617.51 333.077 619.136 332.732 620.343 333.556C621.553 334.381 621.889 336.063 621.094 337.315" fill="#FA7167"/>
<path d="M617.735 337.778C618.521 338.309 619.571 338.084 620.084 337.274C620.597 336.467 620.388 335.381 619.602 334.843C618.821 334.311 617.767 334.536 617.253 335.346C616.882 335.929 616.882 336.688 617.249 337.274C617.289 337.322 617.423 337.564 617.735 337.778" fill="#FA7167"/>
<path d="M628.608 349.204C627.182 349.459 626.226 350.862 626.471 352.338C626.716 353.818 628.078 354.808 629.5 354.552C630.926 354.297 631.886 352.894 631.641 351.418C631.392 349.938 630.034 348.948 628.608 349.204" fill="#FA7167"/>
<path d="M628.819 353.635C630.03 353.421 630.611 351.99 629.953 350.945C629.581 350.358 628.911 350.059 628.241 350.176C627.319 350.341 626.702 351.252 626.862 352.204C627.023 353.166 627.901 353.801 628.819 353.635" fill="#FA7167"/>
<path d="M602.257 339.022L601.847 339.305L619.169 366.677L619.583 366.398L611.878 354.162L623.197 362.877L623.492 362.467L611.699 353.383L625.762 357.807L625.906 357.317L612.408 353.072L626.492 352.213L626.46 351.703L611.791 352.596L625.308 346.623L625.113 346.154L612.137 351.886L622.392 341.85L622.053 341.477L611.368 351.931L618.022 338.36L617.575 338.126L611.197 351.155L612.823 336.643L612.332 336.584L610.635 351.703L607.301 336.88L606.823 336.994L610.018 351.224L602.257 339.022" fill="#FA7167"/>
<path d="M555.749 388.684L556.906 390.518L612.314 352.931L611.157 351.093L555.749 388.684Z" fill="#FA7167"/>
<path d="M582.333 264.648C583.762 266.71 583.305 269.583 581.314 271.063C579.322 272.539 576.553 272.066 575.124 270.004C573.695 267.945 574.153 265.072 576.144 263.593C578.135 262.113 580.904 262.586 582.333 264.648Z" fill="#FA7167"/>
<path d="M577.988 270.636C580.666 272.094 583.415 268.808 581.659 266.276C580.748 264.956 578.962 264.621 577.657 265.594C575.912 266.887 576.128 269.618 577.988 270.636Z" fill="#FA7167"/>
<path d="M605.033 259.554C604.556 262.045 606.119 264.462 608.523 264.955C610.927 265.449 613.261 263.831 613.738 261.341C614.218 258.851 612.655 256.434 610.247 255.94C607.843 255.447 605.51 257.068 605.033 259.554Z" fill="#FA7167"/>
<path d="M608.556 264.237C610.107 264.558 611.622 263.51 611.93 261.902C612.172 260.623 611.564 259.302 610.454 258.695C610.212 258.561 609.947 258.468 609.67 258.409C608.918 258.257 608.155 258.413 607.52 258.854C605.396 260.326 606.074 263.73 608.556 264.237Z" fill="#FA7167"/>
<path d="M584.223 263.415C585.402 265.64 588.101 266.453 590.251 265.229C592.394 264.009 593.18 261.215 592.001 258.991C590.818 256.766 588.123 255.952 585.973 257.177C583.826 258.398 583.04 261.191 584.223 263.415Z" fill="#FA7167"/>
<path d="M589.832 264.658C591.838 263.517 591.785 260.52 589.79 259.426C587.248 258.043 584.586 260.947 585.932 263.486C586.694 264.917 588.436 265.451 589.832 264.658" fill="#FA7167"/>
<path d="M570.675 280.224C572.962 281.141 575.532 279.969 576.416 277.603C577.303 275.237 576.173 272.575 573.886 271.658C571.603 270.737 569.033 271.913 568.145 274.278C567.254 276.644 568.392 279.306 570.675 280.224Z" fill="#FA7167"/>
<path d="M572.027 279.145C573.501 279.734 575.166 278.976 575.74 277.448C576.31 275.93 575.597 274.206 574.1 273.603C572.63 273.01 570.961 273.772 570.388 275.299C569.821 276.817 570.531 278.541 572.027 279.145" fill="#FA7167"/>
<path d="M624.841 309.779C622.819 308.348 622.297 305.489 623.684 303.392C625.067 301.299 627.824 300.761 629.851 302.192C631.873 303.626 632.391 306.485 631.004 308.579C629.625 310.676 626.864 311.214 624.841 309.779" fill="#FA7167"/>
<path d="M625.227 308.191C626.512 308.892 628.102 308.481 628.927 307.236C629.889 305.781 629.42 303.764 627.89 302.929C626.605 302.225 625.015 302.636 624.19 303.884C623.221 305.346 623.697 307.357 625.227 308.191" fill="#FA7167"/>
<path d="M630.567 288.703C628.13 288.952 625.959 287.106 625.717 284.582C625.479 282.054 627.258 279.806 629.695 279.557C632.136 279.305 634.307 281.154 634.549 283.678C634.791 286.203 633.008 288.455 630.567 288.703" fill="#FA7167"/>
<path d="M627.934 286.958C629.932 288.051 632.348 286.399 632.123 284.037C631.966 282.402 630.563 281.209 628.984 281.371C626.166 281.66 625.422 285.589 627.934 286.958Z" fill="#FA7167"/>
<path d="M621.874 268.746C620.161 270.561 617.349 270.591 615.6 268.819C613.847 267.043 613.819 264.135 615.529 262.322C617.246 260.504 620.05 260.473 621.803 262.249C623.556 264.022 623.588 266.933 621.874 268.746Z" fill="#FA7167"/>
<path d="M621.032 266.232C621.024 265.435 620.715 264.694 620.17 264.139C618.345 262.294 615.264 263.663 615.295 266.298C615.303 267.09 615.607 267.832 616.156 268.387C617.974 270.229 621.059 268.87 621.032 266.232Z" fill="#FA7167"/>
<path d="M630.656 291.017C628.206 290.962 626.175 292.976 626.127 295.514C626.075 298.049 628.02 300.149 630.466 300.204C632.916 300.259 634.947 298.245 634.999 295.707C635.052 293.169 633.106 291.069 630.656 291.017" fill="#FA7167"/>
<path d="M631.666 297.625C633.498 295.808 632.298 292.569 629.741 292.51C628.158 292.476 626.845 293.78 626.809 295.418C626.757 298.073 629.833 299.443 631.666 297.625" fill="#FA7167"/>
<path d="M602.827 259.245C602.643 261.776 600.507 263.669 598.065 263.476C595.623 263.283 593.795 261.076 593.98 258.545C594.168 256.014 596.299 254.12 598.741 254.313C601.183 254.506 603.015 256.713 602.827 259.245Z" fill="#FA7167"/>
<path d="M598.222 262.776C599.804 262.9 601.183 261.672 601.305 260.041C601.424 258.41 600.248 256.978 598.662 256.851C597.084 256.726 595.702 257.955 595.583 259.589C595.495 260.772 596.092 261.893 597.103 262.445C597.203 262.486 597.586 262.727 598.222 262.776" fill="#FA7167"/>
<path d="M623.372 270.461C621.466 272.051 621.157 274.944 622.694 276.92C624.227 278.9 627.024 279.217 628.934 277.627C630.844 276.037 631.149 273.144 629.612 271.165C628.079 269.188 625.286 268.871 623.372 270.461Z" fill="#FA7167"/>
<path d="M627.198 276.847C628.814 275.502 628.55 272.888 626.743 271.901C625.731 271.349 624.5 271.47 623.604 272.215C622.372 273.239 622.173 275.115 623.164 276.391C624.16 277.675 625.967 277.871 627.198 276.847Z" fill="#FA7167"/>
<path d="M576.294 277.77L575.907 278.536L623.231 304.359L623.625 303.594L602.524 292.017L626.19 295.31L626.302 294.452L601.644 291.017L625.971 285.626L625.796 284.778L602.449 289.951L622.622 276.722L622.176 275.991L601.154 289.775L616.444 269.449L615.787 268.917L601.106 288.423L608.347 264.858L607.547 264.593L600.007 289.147L599.103 263.4L598.271 263.43L599.131 288.144L590.05 265.272L589.278 265.603L598.737 289.434L582.061 270.311L581.443 270.894L597.442 289.244L576.294 277.77" fill="#FA7167"/>
<path d="M546.746 390.809L549.921 392.54L602.195 289.821L599.02 288.09L546.746 390.809" fill="#FA7167"/>
<path d="M552.528 393.72C552.528 393.72 516.213 365.803 511.24 353.774C506.262 341.742 516.521 343.1 516.521 343.1C516.521 343.1 501.857 321.587 505.752 314.476C509.643 307.365 517.741 316.446 517.741 316.446C517.741 316.446 510.939 287.339 516.854 285.721C527.869 282.704 536.908 314.028 536.908 314.028C536.908 314.028 536.097 301.023 542.997 302.775C553.393 305.417 547.891 333.416 547.891 333.416C547.891 333.416 551.207 328.454 556.908 333.175C567.141 341.652 552.528 393.72 552.528 393.72" fill="#00B300"/>
<path d="M558.45 333.899C552.747 329.178 547.893 333.416 547.893 333.416C547.893 333.416 553.392 305.416 542.996 302.775C536.1 301.023 536.909 314.028 536.909 314.028C536.909 314.028 527.871 282.703 516.854 285.721L552.802 393.63C554.408 386.891 568.006 341.817 558.45 333.899" fill="#00FF00"/>
<path d="M552.48 392.747C552.48 392.747 515.268 392.709 507.587 386.029C499.906 379.349 509.327 378.828 509.327 378.828C509.327 378.828 491.543 369.051 491.804 362.533C492.062 356.012 498.091 357.326 498.091 357.326C498.091 357.326 485.8 345.921 488.324 340.396C492.2 331.898 509.782 348.011 509.782 348.011C509.782 348.011 508.437 341.548 513.888 340.2C522.112 338.165 530.454 362.378 530.454 362.378C530.454 362.378 526.521 351.47 532.169 352.68C542.307 354.853 552.48 392.747 552.48 392.747" fill="#00FF00"/>
<path d="M554.024 394.896C554.024 394.896 587.056 365.703 591.083 353.946C595.114 342.186 585.433 344.125 585.433 344.125C585.433 344.125 598.124 322.732 594.005 316.211C589.887 309.693 584.046 313.549 584.046 313.549C584.046 313.549 587.479 290.718 581.756 289.549C571.1 287.373 564.333 317.746 564.333 317.746C564.333 317.746 564.345 305.32 557.883 307.42C548.145 310.586 555.018 336.882 555.018 336.882C555.018 336.882 551.421 327.05 546.274 331.902C537.035 340.61 554.024 394.896 554.024 394.896" fill="#00FF00"/>
<path d="M544.044 329.802C550.016 326.091 553.607 331.039 553.607 331.039C553.607 331.039 548.147 310.586 557.884 307.42C564.346 305.319 564.335 317.745 564.335 317.745C564.335 317.745 571.101 287.372 581.759 289.549L553.878 394.475C551.956 388.167 536.936 334.219 544.044 329.802" fill="#00B300"/>
<path d="M557.356 390.701C557.356 390.701 593.639 390.715 598.684 390.107C603.733 389.501 598.156 384.834 598.156 384.834C598.156 384.834 609.448 385.262 611.166 382.417C612.888 379.572 608.277 378.455 608.277 378.455C608.277 378.455 619.521 375.078 618.985 372.602C617.984 367.991 605.565 370.998 605.565 370.998C605.565 370.998 610.177 368.678 608.305 366.522C605.479 363.273 593.403 372.112 593.403 372.112C593.403 372.112 597.935 363.232 595.263 362.107C590.463 360.09 557.356 390.701 557.356 390.701" fill="#00B300"/>
<path d="M583.544 432.996H523.162C515.467 425.723 510.785 415.705 510.952 404.713C511.039 399.161 512.143 394.323 514.443 389.57L592.302 390.478C594.453 395.305 595.607 400.606 595.523 406.158C595.36 416.629 590.818 426.068 583.544 432.996" fill="#FF0000"/>
</svg>
